<svg id="arrow" width="45" height="45" viewBox="0 0 45 45" fill="none" xmlns="http://www.w3.org/2000/svg">
<g clip-path="url(#clip0_10_19)">
<path fill-rule="evenodd" clip-rule="evenodd" d="M2.8125 22.5C2.8125 27.7214 4.88671 32.729 8.57883 36.4212C12.271 40.1133 17.2786 42.1875 22.5 42.1875C27.7214 42.1875 32.729 40.1133 36.4212 36.4212C40.1133 32.729 42.1875 27.7214 42.1875 22.5C42.1875 17.2786 40.1133 12.271 36.4212 8.57883C32.729 4.88671 27.7214 2.8125 22.5 2.8125C17.2786 2.8125 12.271 4.88671 8.57883 8.57883C4.88671 12.271 2.8125 17.2786 2.8125 22.5ZM45 22.5C45 28.4674 42.6295 34.1903 38.4099 38.4099C34.1903 42.6295 28.4674 45 22.5 45C16.5326 45 10.8097 42.6295 6.5901 38.4099C2.37053 34.1903 0 28.4674 0 22.5C0 16.5326 2.37053 10.8097 6.5901 6.5901C10.8097 2.37053 16.5326 0 22.5 0C28.4674 0 34.1903 2.37053 38.4099 6.5901C42.6295 10.8097 45 16.5326 45 22.5ZM12.6562 21.0938C12.2833 21.0938 11.9256 21.2419 11.6619 21.5056C11.3982 21.7694 11.25 22.127 11.25 22.5C11.25 22.873 11.3982 23.2306 11.6619 23.4944C11.9256 23.7581 12.2833 23.9062 12.6562 23.9062H28.9491L22.9106 29.9419C22.7799 30.0726 22.6762 30.2278 22.6054 30.3987C22.5346 30.5695 22.4982 30.7526 22.4982 30.9375C22.4982 31.1224 22.5346 31.3055 22.6054 31.4763C22.6762 31.6472 22.7799 31.8024 22.9106 31.9331C23.0414 32.0639 23.1966 32.1676 23.3674 32.2383C23.5382 32.3091 23.7213 32.3455 23.9062 32.3455C24.0912 32.3455 24.2743 32.3091 24.4451 32.2383C24.6159 32.1676 24.7711 32.0639 24.9019 31.9331L33.3394 23.4956C33.4703 23.365 33.5742 23.2098 33.6451 23.039C33.716 22.8681 33.7525 22.685 33.7525 22.5C33.7525 22.315 33.716 22.1319 33.6451 21.961C33.5742 21.7902 33.4703 21.635 33.3394 21.5044L24.9019 13.0669C24.7711 12.9361 24.6159 12.8324 24.4451 12.7617C24.2743 12.6909 24.0912 12.6545 23.9062 12.6545C23.7213 12.6545 23.5382 12.6909 23.3674 12.7617C23.1966 12.8324 23.0414 12.9361 22.9106 13.0669C22.7799 13.1976 22.6762 13.3528 22.6054 13.5237C22.5346 13.6945 22.4982 13.8776 22.4982 14.0625C22.4982 14.2474 22.5346 14.4305 22.6054 14.6013C22.6762 14.7722 22.7799 14.9274 22.9106 15.0581L28.9491 21.0938H12.6562Z" fill="black"/>
</g>
<defs>
<clipPath id="clip0_10_19">
<rect width="45" height="45" fill="white"/>
</clipPath>
</defs>
</svg>
