<svg id="arrow" width="45" height="45" viewBox="0 0 45 45" fill="none" xmlns="http://www.w3.org/2000/svg">
<g clip-path="url(#clip0_10_23)">
<path fill-rule="evenodd" clip-rule="evenodd" d="M2.8125 22.5C2.8125 27.7214 4.88671 32.729 8.57883 36.4212C12.271 40.1133 17.2786 42.1875 22.5 42.1875C27.7214 42.1875 32.729 40.1133 36.4212 36.4212C40.1133 32.729 42.1875 27.7214 42.1875 22.5C42.1875 17.2786 40.1133 12.271 36.4212 8.57883C32.729 4.88671 27.7214 2.8125 22.5 2.8125C17.2786 2.8125 12.271 4.88671 8.57883 8.57883C4.88671 12.271 2.8125 17.2786 2.8125 22.5ZM45 22.5C45 28.4674 42.6295 34.1903 38.4099 38.4099C34.1903 42.6295 28.4674 45 22.5 45C16.5326 45 10.8097 42.6295 6.5901 38.4099C2.37053 34.1903 0 28.4674 0 22.5C0 16.5326 2.37053 10.8097 6.5901 6.5901C10.8097 2.37053 16.5326 0 22.5 0C28.4674 0 34.1903 2.37053 38.4099 6.5901C42.6295 10.8097 45 16.5326 45 22.5ZM32.3438 21.0938C32.7167 21.0938 33.0744 21.2419 33.3381 21.5056C33.6018 21.7694 33.75 22.127 33.75 22.5C33.75 22.873 33.6018 23.2306 33.3381 23.4944C33.0744 23.7581 32.7167 23.9062 32.3438 23.9062H16.0509L22.0894 29.9419C22.2201 30.0726 22.3238 30.2278 22.3946 30.3987C22.4654 30.5695 22.5018 30.7526 22.5018 30.9375C22.5018 31.1224 22.4654 31.3055 22.3946 31.4763C22.3238 31.6472 22.2201 31.8024 22.0894 31.9331C21.9586 32.0639 21.8034 32.1676 21.6326 32.2383C21.4618 32.3091 21.2787 32.3455 21.0938 32.3455C20.9088 32.3455 20.7257 32.3091 20.5549 32.2383C20.3841 32.1676 20.2289 32.0639 20.0981 31.9331L11.6606 23.4956C11.5297 23.365 11.4258 23.2098 11.3549 23.039C11.284 22.8681 11.2475 22.685 11.2475 22.5C11.2475 22.315 11.284 22.1319 11.3549 21.961C11.4258 21.7902 11.5297 21.635 11.6606 21.5044L20.0981 13.0669C20.3622 12.8028 20.7203 12.6545 21.0938 12.6545C21.4672 12.6545 21.8253 12.8028 22.0894 13.0669C22.3534 13.3309 22.5018 13.6891 22.5018 14.0625C22.5018 14.4359 22.3534 14.7941 22.0894 15.0581L16.0509 21.0938H32.3438Z" fill="black"/>
</g>
<defs>
<clipPath id="clip0_10_23">
<rect width="45" height="45" fill="white"/>
</clipPath>
</defs>
</svg>
