<svg width="18" height="10" viewBox="0 0 18 10" fill="none" xmlns="http://www.w3.org/2000/svg">
<path fill-rule="evenodd" clip-rule="evenodd" d="M0.293738 0.293682C0.386613 0.200588 0.496946 0.12673 0.618416 0.076335C0.739885 0.0259401 0.870106 0 1.00162 0C1.13313 0 1.26335 0.0259401 1.38482 0.076335C1.50629 0.12673 1.61662 0.200588 1.7095 0.293682L9.00026 7.58508L16.291 0.293682C16.4788 0.105975 16.7334 0.000524715 16.9989 0.000524715C17.2644 0.000524715 17.519 0.105975 17.7068 0.293682C17.8945 0.481388 18 0.735973 18 1.00143C18 1.26689 17.8945 1.52147 17.7068 1.70918L9.70814 9.70632C9.61527 9.79941 9.50493 9.87327 9.38346 9.92367C9.26199 9.97406 9.13177 10 9.00026 10C8.86875 10 8.73853 9.97406 8.61706 9.92367C8.49559 9.87327 8.38526 9.79941 8.29238 9.70632L0.293738 1.70918C0.200627 1.61632 0.126754 1.50601 0.0763497 1.38456C0.0259453 1.26311 0 1.13292 0 1.00143C0 0.869942 0.0259453 0.739746 0.0763497 0.6183C0.126754 0.496853 0.200627 0.38654 0.293738 0.293682Z" fill="white"/>
</svg>
