<svg id="clock" width="30" height="30" viewBox="0 0 30 30" fill="none" xmlns="http://www.w3.org/2000/svg">
<g clip-path="url(#clip0_73_14)">
<path d="M15 6.5625C15 6.31386 14.9012 6.0754 14.7254 5.89959C14.5496 5.72377 14.3111 5.625 14.0625 5.625C13.8139 5.625 13.5754 5.72377 13.3996 5.89959C13.2238 6.0754 13.125 6.31386 13.125 6.5625V16.875C13.1251 17.0402 13.1688 17.2025 13.2518 17.3455C13.3347 17.4884 13.454 17.6068 13.5975 17.6888L20.16 21.4388C20.3754 21.5551 20.6277 21.5827 20.8631 21.5155C21.0985 21.4483 21.2983 21.2917 21.4197 21.0791C21.5412 20.8666 21.5747 20.615 21.5131 20.378C21.4514 20.1411 21.2996 19.9377 21.09 19.8113L15 16.3313V6.5625Z" fill="black"/>
<path d="M15 30C18.9782 30 22.7936 28.4196 25.6066 25.6066C28.4196 22.7936 30 18.9782 30 15C30 11.0218 28.4196 7.20644 25.6066 4.3934C22.7936 1.58035 18.9782 0 15 0C11.0218 0 7.20644 1.58035 4.3934 4.3934C1.58035 7.20644 0 11.0218 0 15C0 18.9782 1.58035 22.7936 4.3934 25.6066C7.20644 28.4196 11.0218 30 15 30ZM28.125 15C28.125 18.481 26.7422 21.8194 24.2808 24.2808C21.8194 26.7422 18.481 28.125 15 28.125C11.519 28.125 8.18064 26.7422 5.71922 24.2808C3.25781 21.8194 1.875 18.481 1.875 15C1.875 11.519 3.25781 8.18064 5.71922 5.71922C8.18064 3.25781 11.519 1.875 15 1.875C18.481 1.875 21.8194 3.25781 24.2808 5.71922C26.7422 8.18064 28.125 11.519 28.125 15Z" fill="black"/>
</g>
<defs>
<clipPath id="clip0_73_14">
<rect width="30" height="30" fill="white"/>
</clipPath>
</defs>
</svg>
