<svg width="42" height="40" viewBox="0 0 42 40" fill="none" xmlns="http://www.w3.org/2000/svg">
<path id="email" d="M1 10C1 8.67392 1.52678 7.40215 2.46447 6.46447C3.40215 5.52678 4.67392 5 6 5H36C37.3261 5 38.5979 5.52678 39.5355 6.46447C40.4732 7.40215 41 8.67392 41 10V30C41 31.3261 40.4732 32.5979 39.5355 33.5355C38.5979 34.4732 37.3261 35 36 35H6C4.67392 35 3.40215 34.4732 2.46447 33.5355C1.52678 32.5979 1 31.3261 1 30V10ZM6 7.5C5.33696 7.5 4.70107 7.76339 4.23223 8.23223C3.76339 8.70107 3.5 9.33696 3.5 10V10.5425L21 21.0425L38.5 10.5425V10C38.5 9.33696 38.2366 8.70107 37.7678 8.23223C37.2989 7.76339 36.663 7.5 36 7.5H6ZM38.5 13.4575L26.73 20.52L38.5 27.7625V13.4575ZM38.415 30.6475L24.315 21.97L21 23.9575L17.685 21.97L3.585 30.645C3.72706 31.177 4.04079 31.6472 4.47747 31.9826C4.91416 32.318 5.44936 32.4999 6 32.5H36C36.5503 32.5001 37.0853 32.3186 37.5219 31.9836C37.9585 31.6487 38.2725 31.179 38.415 30.6475ZM3.5 27.7625L15.27 20.52L3.5 13.4575V27.7625Z" fill="black" stroke="black"/>
</svg>
