<svg id="insta" width="39" height="41" viewBox="0 0 39 41" fill="none" xmlns="http://www.w3.org/2000/svg">
<g clip-path="url(#clip0_48_151)">
<path d="M19.5 0C14.2082 0 13.5428 0.0252815 11.4636 0.121351C9.38438 0.222478 7.96819 0.56125 6.7275 1.06182C5.4261 1.56953 4.24732 2.36591 3.27356 3.39531C2.28169 4.4058 1.51395 5.62828 1.02375 6.97771C0.541125 8.26201 0.212063 9.73339 0.117 11.8823C0.024375 14.0439 0 14.7316 0 20.2278C0 25.7189 0.024375 26.4066 0.117 28.5631C0.2145 30.7171 0.541125 32.1859 1.02375 33.4728C1.52344 34.8026 2.18888 35.9301 3.27356 37.0552C4.35581 38.1802 5.44294 38.8729 6.72506 39.3886C7.96819 39.8892 9.38194 40.2305 11.4587 40.3291C13.5403 40.4252 14.2033 40.4505 19.5 40.4505C24.7967 40.4505 25.4573 40.4252 27.5389 40.3291C29.6132 40.228 31.0343 39.8892 32.2749 39.3886C33.5755 38.8807 34.7534 38.0843 35.7264 37.0552C36.8111 35.9301 37.4766 34.8026 37.9762 33.4728C38.4564 32.1859 38.7855 30.7171 38.883 28.5631C38.9756 26.4066 39 25.7189 39 20.2252C39 14.7316 38.9756 14.0439 38.883 11.8849C38.7855 9.73339 38.4564 8.26201 37.9762 6.97771C37.4861 5.62824 36.7184 4.40575 35.7264 3.39531C34.753 2.36553 33.5741 1.56909 32.2725 1.06182C31.0294 0.56125 29.6108 0.219949 27.5364 0.121351C25.4548 0.0252815 24.7943 0 19.4951 0H19.5024H19.5ZM17.7523 3.6456H19.5024C24.7089 3.6456 25.3256 3.6633 27.3804 3.76189C29.2817 3.85038 30.3152 4.18157 31.0026 4.45714C31.9117 4.82372 32.5626 5.26362 33.2451 5.9715C33.9276 6.67938 34.3493 7.35187 34.7027 8.2974C34.9708 9.00781 35.2877 10.0798 35.373 12.0517C35.4681 14.1829 35.4876 14.8226 35.4876 20.2202C35.4876 25.6178 35.4681 26.2599 35.373 28.3912C35.2877 30.3631 34.9684 31.4325 34.7027 32.1455C34.3901 33.0237 33.8911 33.8177 33.2426 34.4689C32.5601 35.1767 31.9118 35.6141 31.0001 35.9807C30.3176 36.2588 29.2841 36.5874 27.3804 36.6785C25.3256 36.7745 24.7089 36.7973 19.5024 36.7973C14.2959 36.7973 13.6768 36.7745 11.622 36.6785C9.72075 36.5874 8.68969 36.2588 8.00231 35.9807C7.15528 35.6569 6.38899 35.1403 5.75981 34.4689C5.11083 33.8167 4.61107 33.0219 4.29731 32.143C4.03163 31.4325 3.71231 30.3606 3.627 28.3886C3.53438 26.2574 3.51488 25.6178 3.51488 20.2151C3.51488 14.815 3.53438 14.1779 3.627 12.0467C3.71475 10.0747 4.03163 9.00276 4.29975 8.28982C4.65319 7.34682 5.07731 6.6718 5.75981 5.96392C6.44231 5.25603 7.09069 4.81866 8.00231 4.45208C8.68969 4.17398 9.72075 3.84532 11.622 3.75431C13.4209 3.66835 14.118 3.64307 17.7523 3.64054V3.6456ZM29.9106 7.00299C29.6033 7.00299 29.299 7.06576 29.0151 7.18773C28.7312 7.3097 28.4732 7.48848 28.2559 7.71385C28.0386 7.93922 27.8663 8.20677 27.7487 8.50123C27.6311 8.79569 27.5706 9.11129 27.5706 9.43001C27.5706 9.74874 27.6311 10.0643 27.7487 10.3588C27.8663 10.6533 28.0386 10.9208 28.2559 11.1462C28.4732 11.3716 28.7312 11.5503 29.0151 11.6723C29.299 11.7943 29.6033 11.857 29.9106 11.857C30.5312 11.857 31.1264 11.6013 31.5652 11.1462C32.004 10.691 32.2506 10.0737 32.2506 9.43001C32.2506 8.78633 32.004 8.169 31.5652 7.71385C31.1264 7.25869 30.5312 7.00299 29.9106 7.00299ZM19.5024 9.83958C18.1742 9.81808 16.8551 10.0709 15.6219 10.5832C14.3887 11.0956 13.2661 11.8572 12.3195 12.8239C11.3729 13.7905 10.6211 14.9428 10.1079 16.2137C9.59478 17.4846 9.33051 18.8487 9.33051 20.2265C9.33051 21.6043 9.59478 22.9684 10.1079 24.2393C10.6211 25.5102 11.3729 26.6625 12.3195 27.6291C13.2661 28.5958 14.3887 29.3574 15.6219 29.8698C16.8551 30.3821 18.1742 30.6349 19.5024 30.6134C22.1314 30.5709 24.6388 29.4578 26.4834 27.5145C28.328 25.5712 29.3619 22.9535 29.3619 20.2265C29.3619 17.4994 28.328 14.8818 26.4834 12.9385C24.6388 10.9952 22.1314 9.88212 19.5024 9.83958ZM19.5024 13.4826C21.2266 13.4826 22.8801 14.193 24.0992 15.4575C25.3183 16.722 26.0033 18.437 26.0033 20.2252C26.0033 22.0135 25.3183 23.7285 24.0992 24.993C22.8801 26.2574 21.2266 26.9678 19.5024 26.9678C17.7783 26.9678 16.1248 26.2574 14.9057 24.993C13.6865 23.7285 13.0016 22.0135 13.0016 20.2252C13.0016 18.437 13.6865 16.722 14.9057 15.4575C16.1248 14.193 17.7783 13.4826 19.5024 13.4826Z" fill="black"/>
</g>
<defs>
<clipPath id="clip0_48_151">
<rect width="39" height="40.4505" fill="white"/>
</clipPath>
</defs>
</svg>
