<svg width="95" height="95" viewBox="0 0 95 95" fill="none" xmlns="http://www.w3.org/2000/svg">
<path fill-rule="evenodd" clip-rule="evenodd" d="M92.534 62.6464C94.1333 57.8894 95 52.7959 95 47.5C95 21.2665 73.7335 0 47.5 0C21.2665 0 0 21.2665 0 47.5C0 52.7959 0.866697 57.8894 2.46599 62.6464H30.9111V40.6996H27.3048L48.6334 19.3709L70.0651 40.6996H66.4588V62.6464H92.534ZM45.2332 20.1952C39.1372 25.6562 22.359 11.0249 38.3299 9.99453C45.2332 -0.824295 51.3292 14.7343 45.2332 20.1952ZM52.6518 19.9892C48.4357 18.6074 51.2045 6.21639 56.0173 13.4352C62.9677 13.7436 56.868 21.3709 52.6518 19.9892Z" fill="#00A9F1"/>
<path d="M80.348 81.8113H14.652C23.1831 89.9808 34.7554 95 47.5 95C60.2446 95 71.8169 89.9808 80.348 81.8113Z" fill="#00A9F1"/>
<path d="M61.513 62.6464V50.179H51.4154V62.6464H61.513Z" fill="#00A9F1"/>
<path d="M23.8039 69.1802C24.2928 69.1802 24.7104 69.2637 25.057 69.4308C25.4035 69.5917 25.6695 69.8268 25.8552 70.1362C26.047 70.4456 26.1429 70.8199 26.1429 71.2593C26.1429 71.5254 26.1027 71.7883 26.0222 72.0482C25.9418 72.3019 25.8119 72.534 25.6324 72.7443C25.4592 72.9485 25.2302 73.1125 24.9456 73.2363C24.6609 73.36 24.3144 73.4219 23.906 73.4219H22.9129V75.8908H22.0126V69.1802H23.8039ZM23.8968 72.5587C24.1628 72.5587 24.3825 72.5154 24.5558 72.4288C24.729 72.3421 24.8651 72.2338 24.9641 72.1039C25.0631 71.9678 25.1343 71.8255 25.1776 71.6769C25.2209 71.5284 25.2426 71.3954 25.2426 71.2778C25.2426 71.1417 25.2209 71.0025 25.1776 70.8602C25.1343 70.7117 25.0601 70.5786 24.9549 70.4611C24.8559 70.3373 24.7228 70.2383 24.5558 70.164C24.3949 70.0836 24.1938 70.0434 23.9524 70.0434H22.9129V72.5587H23.8968Z" fill="#00A9F1"/>
<path d="M27.4398 69.1802H31.8022V70.0434H28.3401V72.0853H31.4309V72.9485H28.3401V75.0276H31.9321V75.8908H27.4398V69.1802Z" fill="#00A9F1"/>
<path d="M32.9099 69.1802H37.365V70.0434H35.5644V75.8908H34.6641V70.0434H32.9099V69.1802Z" fill="#00A9F1"/>
<path d="M46.8551 69.1802V75.8908H45.9641V72.9485H42.4463V75.8908H41.546V69.1802H42.4463V72.0946H45.9641V69.1802H46.8551Z" fill="#00A9F1"/>
<path d="M48.2777 72.5401C48.2777 72.0761 48.3644 71.6398 48.5376 71.2314C48.7171 70.8169 48.9646 70.4518 49.2801 70.1362C49.5957 69.8144 49.9577 69.5638 50.3661 69.3844C50.7807 69.1988 51.2262 69.1059 51.7026 69.1059C52.1729 69.1059 52.6122 69.1988 53.0206 69.3844C53.4352 69.5638 53.8003 69.8144 54.1159 70.1362C54.4376 70.4518 54.6882 70.8169 54.8677 71.2314C55.0471 71.6398 55.1368 72.0761 55.1368 72.5401C55.1368 73.0166 55.0471 73.4621 54.8677 73.8767C54.6882 74.2913 54.4376 74.6563 54.1159 74.9719C53.8003 75.2813 53.4352 75.5257 53.0206 75.7052C52.6122 75.8784 52.1729 75.9651 51.7026 75.9651C51.2262 75.9651 50.7807 75.8784 50.3661 75.7052C49.9577 75.5319 49.5957 75.2906 49.2801 74.9812C48.9646 74.6718 48.7171 74.3098 48.5376 73.8953C48.3644 73.4807 48.2777 73.029 48.2777 72.5401ZM49.2059 72.5494C49.2059 72.9021 49.2709 73.2332 49.4008 73.5426C49.5308 73.8458 49.7102 74.1149 49.9391 74.3501C50.1681 74.5852 50.4342 74.7708 50.7374 74.907C51.0406 75.0369 51.3685 75.1019 51.7212 75.1019C52.0677 75.1019 52.3926 75.0369 52.6958 74.907C52.999 74.7708 53.262 74.5852 53.4847 74.3501C53.7075 74.1149 53.8838 73.8458 54.0138 73.5426C54.1437 73.2332 54.2087 72.899 54.2087 72.5401C54.2087 72.1874 54.1437 71.8564 54.0138 71.547C53.8838 71.2314 53.7044 70.9561 53.4754 70.7209C53.2465 70.4858 52.9804 70.3033 52.6772 70.1733C52.374 70.0372 52.0492 69.9691 51.7026 69.9691C51.3499 69.9691 51.022 70.0372 50.7188 70.1733C50.4156 70.3095 50.1495 70.4951 49.9206 70.7302C49.6916 70.9654 49.5153 71.2407 49.3915 71.5563C49.2678 71.8657 49.2059 72.1967 49.2059 72.5494Z" fill="#00A9F1"/>
<path d="M57.3683 73.5147C57.3683 73.8179 57.4395 74.0902 57.5818 74.3315C57.7303 74.5666 57.9252 74.7523 58.1666 74.8884C58.4079 75.0245 58.6801 75.0926 58.9833 75.0926C59.2989 75.0926 59.5805 75.0245 59.828 74.8884C60.0755 74.7523 60.2704 74.5666 60.4127 74.3315C60.555 74.0902 60.6262 73.8179 60.6262 73.5147V69.1802H61.5079V73.5426C61.5079 74.0314 61.3935 74.4583 61.1645 74.8234C60.9418 75.1885 60.6386 75.47 60.2549 75.668C59.8775 75.8661 59.4536 75.9651 58.9833 75.9651C58.5131 75.9651 58.0892 75.8661 57.7118 75.668C57.3343 75.47 57.0342 75.1885 56.8115 74.8234C56.5887 74.4583 56.4773 74.0314 56.4773 73.5426V69.1802H57.3683V73.5147Z" fill="#00A9F1"/>
<path d="M66.7283 70.3775C66.4994 70.26 66.2488 70.1579 65.9765 70.0712C65.7043 69.9846 65.4382 69.9413 65.1783 69.9413C64.8194 69.9413 64.5317 70.0248 64.3151 70.1919C64.1047 70.359 63.9995 70.5817 63.9995 70.8602C63.9995 71.0705 64.0676 71.25 64.2037 71.3985C64.3399 71.5408 64.5193 71.6646 64.7421 71.7698C64.9648 71.875 65.1969 71.974 65.4382 72.0668C65.6486 72.1472 65.8559 72.2369 66.0601 72.3359C66.2643 72.435 66.4468 72.5587 66.6077 72.7072C66.7747 72.8557 66.9047 73.0383 66.9975 73.2548C67.0965 73.4714 67.146 73.7406 67.146 74.0623C67.146 74.415 67.0563 74.7368 66.8768 75.0276C66.7036 75.3184 66.453 75.5474 66.125 75.7145C65.7971 75.8815 65.4073 75.9651 64.9556 75.9651C64.6585 75.9651 64.3739 75.931 64.1016 75.863C63.8356 75.7949 63.5881 75.7083 63.3591 75.6031C63.1302 75.4917 62.926 75.3772 62.7465 75.2597L63.1456 74.5543C63.2941 74.6594 63.4643 74.7615 63.6561 74.8605C63.8479 74.9534 64.049 75.0307 64.2594 75.0926C64.4698 75.1483 64.674 75.1761 64.872 75.1761C65.0824 75.1761 65.2897 75.139 65.4939 75.0647C65.7043 74.9843 65.8775 74.8636 66.0137 74.7028C66.1498 74.5419 66.2178 74.3284 66.2178 74.0623C66.2178 73.8334 66.156 73.6447 66.0322 73.4961C65.9146 73.3415 65.7569 73.2115 65.5589 73.1063C65.3608 72.9949 65.1505 72.8959 64.9277 72.8093C64.7173 72.7289 64.5038 72.6422 64.2873 72.5494C64.0707 72.4504 63.8696 72.3328 63.684 72.1967C63.4983 72.0544 63.3498 71.8811 63.2385 71.6769C63.1271 71.4728 63.0714 71.2252 63.0714 70.9344C63.0714 70.5817 63.1549 70.2754 63.322 70.0155C63.4952 69.7495 63.7304 69.5422 64.0274 69.3937C64.3244 69.239 64.6647 69.1554 65.0484 69.1431C65.4815 69.1431 65.8621 69.1957 66.19 69.3009C66.5241 69.4061 66.8181 69.536 67.0718 69.6907L66.7283 70.3775Z" fill="#00A9F1"/>
<path d="M68.5664 69.1802H72.9287V70.0434H69.4667V72.0853H72.5575V72.9485H69.4667V75.0276H73.0587V75.8908H68.5664V69.1802Z" fill="#00A9F1"/>
</svg>
