<svg width="40" height="40" viewBox="0 0 40 40" fill="none" xmlns="http://www.w3.org/2000/svg">
<path id="person" d="M20 20C22.6522 20 25.1957 18.9464 27.0711 17.0711C28.9464 15.1957 30 12.6522 30 10C30 7.34783 28.9464 4.8043 27.0711 2.92893C25.1957 1.05357 22.6522 0 20 0C17.3478 0 14.8043 1.05357 12.9289 2.92893C11.0536 4.8043 10 7.34783 10 10C10 12.6522 11.0536 15.1957 12.9289 17.0711C14.8043 18.9464 17.3478 20 20 20ZM26.6667 10C26.6667 11.7681 25.9643 13.4638 24.714 14.714C23.4638 15.9643 21.7681 16.6667 20 16.6667C18.2319 16.6667 16.5362 15.9643 15.286 14.714C14.0357 13.4638 13.3333 11.7681 13.3333 10C13.3333 8.23189 14.0357 6.5362 15.286 5.28595C16.5362 4.03571 18.2319 3.33333 20 3.33333C21.7681 3.33333 23.4638 4.03571 24.714 5.28595C25.9643 6.5362 26.6667 8.23189 26.6667 10ZM40 36.6667C40 40 36.6667 40 36.6667 40H3.33333C3.33333 40 0 40 0 36.6667C0 33.3333 3.33333 23.3333 20 23.3333C36.6667 23.3333 40 33.3333 40 36.6667ZM36.6667 36.6533C36.6633 35.8333 36.1533 33.3667 33.8933 31.1067C31.72 28.9333 27.63 26.6667 20 26.6667C12.3667 26.6667 8.28 28.9333 6.10667 31.1067C3.84667 33.3667 3.34 35.8333 3.33333 36.6533H36.6667Z" fill="black"/>
</svg>
