<svg  id="pin" width="23" height="30" viewBox="0 0 23 30" fill="none" xmlns="http://www.w3.org/2000/svg">
<path d="M19.0613 16.7625C18.0788 18.7537 16.7475 20.7375 15.3863 22.5188C14.0949 24.198 12.7142 25.8066 11.25 27.3375C9.78578 25.8066 8.40503 24.1981 7.11375 22.5188C5.7525 20.7375 4.42125 18.7537 3.43875 16.7625C2.445 14.7506 1.875 12.8663 1.875 11.25C1.875 8.7636 2.86272 6.37903 4.62087 4.62087C6.37903 2.86272 8.7636 1.875 11.25 1.875C13.7364 1.875 16.121 2.86272 17.8791 4.62087C19.6373 6.37903 20.625 8.7636 20.625 11.25C20.625 12.8663 20.0531 14.7506 19.0613 16.7625ZM11.25 30C11.25 30 22.5 19.3388 22.5 11.25C22.5 8.26631 21.3147 5.40483 19.205 3.29505C17.0952 1.18526 14.2337 0 11.25 0C8.26631 0 5.40483 1.18526 3.29505 3.29505C1.18526 5.40483 4.44604e-08 8.26631 0 11.25C0 19.3388 11.25 30 11.25 30Z" fill="black"/>
<path d="M11.25 15C10.2554 15 9.30161 14.6049 8.59835 13.9017C7.89509 13.1984 7.5 12.2446 7.5 11.25C7.5 10.2554 7.89509 9.30161 8.59835 8.59835C9.30161 7.89509 10.2554 7.5 11.25 7.5C12.2446 7.5 13.1984 7.89509 13.9017 8.59835C14.6049 9.30161 15 10.2554 15 11.25C15 12.2446 14.6049 13.1984 13.9017 13.9017C13.1984 14.6049 12.2446 15 11.25 15ZM11.25 16.875C12.7418 16.875 14.1726 16.2824 15.2275 15.2275C16.2824 14.1726 16.875 12.7418 16.875 11.25C16.875 9.75816 16.2824 8.32742 15.2275 7.27252C14.1726 6.21763 12.7418 5.625 11.25 5.625C9.75816 5.625 8.32742 6.21763 7.27252 7.27252C6.21763 8.32742 5.625 9.75816 5.625 11.25C5.625 12.7418 6.21763 14.1726 7.27252 15.2275C8.32742 16.2824 9.75816 16.875 11.25 16.875Z" fill="black"/>
</svg>
