<svg width="41" height="41" viewBox="0 0 41 41" fill="none" xmlns="http://www.w3.org/2000/svg">
<path id="telephone" d="M9.90749 4.23764C9.7636 4.05254 9.58198 3.90018 9.37468 3.79067C9.16738 3.68117 8.93915 3.61702 8.70516 3.6025C8.47116 3.58797 8.23676 3.6234 8.01751 3.70643C7.79826 3.78947 7.59918 3.9182 7.43351 4.08408L4.91321 6.60683C3.73594 7.78655 3.30208 9.4562 3.81637 10.9211C5.95092 16.9844 9.42316 22.4894 13.9756 27.0277C18.5139 31.5801 24.0188 35.0523 30.082 37.187C31.5469 37.7013 33.2166 37.2674 34.3963 36.0901L36.9166 33.5698C37.0825 33.4041 37.2112 33.205 37.2942 32.9858C37.3773 32.7665 37.4127 32.5321 37.3982 32.2981C37.3836 32.0641 37.3195 31.8359 37.21 31.6286C37.1005 31.4213 36.9481 31.2397 36.763 31.0958L31.1399 26.723C30.9421 26.5697 30.7121 26.4632 30.4673 26.4117C30.2224 26.3602 29.969 26.3649 29.7262 26.4257L24.3882 27.7589C23.6757 27.937 22.9292 27.9276 22.2215 27.7315C21.5137 27.5355 20.8687 27.1595 20.3494 26.6402L14.3631 20.6514C13.8434 20.1323 13.4669 19.4874 13.2704 18.7796C13.0739 18.0719 13.0641 17.3252 13.2419 16.6125L14.5776 11.2745C14.6383 11.0318 14.6431 10.7784 14.5916 10.5335C14.5401 10.2886 14.4336 10.0586 14.2802 9.86082L9.90749 4.23764ZM5.59325 2.24625C6.01979 1.81958 6.53222 1.48852 7.09651 1.27508C7.6608 1.06164 8.26404 0.970682 8.86618 1.00826C9.46832 1.04583 10.0556 1.21108 10.589 1.49303C11.1223 1.77497 11.5896 2.16716 11.9598 2.64355L16.3325 8.26429C17.1345 9.29533 17.4172 10.6384 17.1003 11.9058L15.7671 17.2438C15.6981 17.5203 15.7018 17.8099 15.7779 18.0845C15.8539 18.3591 15.9996 18.6094 16.2009 18.8111L22.1897 24.7999C22.3916 25.0016 22.6423 25.1476 22.9174 25.2236C23.1924 25.2996 23.4825 25.3031 23.7594 25.2338L29.0949 23.9005C29.7204 23.7441 30.3732 23.7319 31.0041 23.8649C31.6349 23.998 32.2273 24.2727 32.7364 24.6683L38.3571 29.041C40.3777 30.6132 40.563 33.599 38.7544 35.4052L36.2341 37.9255C34.4304 39.7292 31.7346 40.5214 29.2216 39.6366C22.7897 37.3735 16.9499 33.6913 12.1353 28.8631C7.30747 24.0492 3.6253 18.2102 1.36189 11.7791C0.479539 9.26852 1.2717 6.57027 3.0754 4.76656L5.59569 2.24625H5.59325Z" fill="black" stroke="black"/>
</svg>
