<svg id="whatsapp" width="97" height="97" viewBox="0 0 97 97" fill="none" xmlns="http://www.w3.org/2000/svg">
<path d="M0 48.5C0 75.2858 21.7142 97 48.5 97C75.2858 97 97 75.2858 97 48.5C97 21.7142 75.2858 0 48.5 0C21.7142 0 0 21.7142 0 48.5Z" fill="#5ED029"/>
<path d="M71.5038 25.4495C68.5104 22.442 64.9456 20.0576 61.0172 18.4353C57.0888 16.813 52.8754 15.9852 48.6224 16.0002C30.8013 16.0002 16.2775 30.4545 16.2612 48.1995C16.2612 53.8829 17.7548 59.4119 20.5746 64.3072L16 81L33.1559 76.5231C37.902 79.0943 43.2191 80.4421 48.6224 80.4434H48.6387C66.464 80.4434 80.9837 65.9891 81 48.2279C81.0041 43.995 80.1667 39.8031 78.5362 35.8937C76.9058 31.9843 74.5184 28.4348 71.5038 25.4495ZM48.6224 74.9916C43.8029 74.9932 39.072 73.7021 34.927 71.2541L33.9476 70.6691L23.77 73.326L26.4878 63.4419L25.8512 62.4222C23.157 58.158 21.7322 53.2208 21.7418 48.1832C21.7418 33.4526 33.8089 21.4358 48.6387 21.4358C52.1717 21.4295 55.671 22.1194 58.9348 23.4658C62.1987 24.8122 65.1626 26.7884 67.6556 29.2805C70.1573 31.7629 72.1405 34.7137 73.4909 37.9629C74.8413 41.2122 75.5321 44.6954 75.5235 48.2117C75.5071 62.9951 63.44 74.9916 48.6224 74.9916ZM63.3747 54.9473C62.5708 54.5451 58.6001 52.5992 57.8533 52.3229C57.1106 52.0588 56.5679 51.9207 56.0373 52.7251C55.4946 53.5254 53.9439 55.3495 53.4786 55.8735C53.0134 56.4138 52.5319 56.4748 51.7239 56.0766C50.9199 55.6704 48.3123 54.8254 45.2271 52.0751C42.8194 49.9423 41.2075 47.3017 40.7259 46.5014C40.2607 45.697 40.6811 45.2664 41.0851 44.8642C41.4401 44.5067 41.889 43.9217 42.293 43.4586C42.7011 42.9954 42.8358 42.6542 43.101 42.1179C43.3663 41.5736 43.2398 41.1104 43.0398 40.7082C42.8358 40.3061 41.2238 36.337 40.5423 34.7364C39.8894 33.1561 39.2242 33.3755 38.7263 33.3551C38.2611 33.3267 37.7184 33.3267 37.1756 33.3267C36.7657 33.3369 36.3624 33.4312 35.9909 33.6039C35.6194 33.7766 35.2878 34.0238 35.0168 34.3301C34.2741 35.1345 32.1969 37.0804 32.1969 41.0495C32.1969 45.0185 35.0944 48.8332 35.5024 49.3735C35.9024 49.9138 41.1912 58.0348 49.308 61.5285C51.226 62.3613 52.7359 62.8529 53.9153 63.2266C55.8537 63.8441 57.6044 63.7507 59.0001 63.5516C60.5508 63.316 63.7787 61.6016 64.4602 59.7207C65.1295 57.8357 65.1295 56.227 64.9255 55.8898C64.7255 55.5485 64.1828 55.3495 63.3747 54.9473Z" fill="white"/>
</svg>
